# xmcd
#
# Track frame offsets: 
#        150
#        24498
#        42648
#        61336
#        77600
#        102095
#        122214
#        150796
#        169177
#        182207
#        203814
#        220818
#        244206
#        263919
#        279924
#        302990
#        324188
#
# Disc length: 4778 seconds
#
# Revision: 1
# Processed by: cddbd v1.5.2PL0 Copyright (c) Steve Scherf et al.
# Submitted via: ExactAudioCopy v1.3
#
DISCID=e612a811
DTITLE=Various Artist - Akella Presents - vol.53 - Rockin' Blues  201
DTITLE=5  CD1
DYEAR=2015
DGENRE=Blues
TTITLE0=Tony Spinner - Dust And Ash
TTITLE1=The Dusters - Roadhouse Blues
TTITLE2=Danny Johnson - Dandylion
TTITLE3=Keith Thompson's Strange Brew - Heartbreaker
TTITLE4=HBB and Dick Heckstall-Smith - Inner City Blues
TTITLE5=Steve Johnson - Gone For Good
TTITLE6=Mick Taylor - Twisted Sister
TTITLE7=Johnny Tornado's Stormriders - Raw To The Bone
TTITLE8=Motor City Josh - Little Red Rooster
TTITLE9=Paul Wood - Good Day 4 Bad Whiskey
TTITLE10=Big Al and the Heavyweights - That Ain't Nice
TTITLE11=Pat Ramsey and The Blues Disciples - Build Me A Woman
TTITLE12=Buzztown - Dirty Woman
TTITLE13=Voronofff - Running
TTITLE14=Tommy Shrieve Band - You Got A Love
TTITLE15=Lee McBee and Mike Morgan - All My Life
TTITLE16=Sean Costello - Double Trouble
EXTD=
EXTT0=
EXTT1=
EXTT2=
EXTT3=
EXTT4=
EXTT5=
EXTT6=
EXTT7=
EXTT8=
EXTT9=
EXTT10=
EXTT11=
EXTT12=
EXTT13=
EXTT14=
EXTT15=
EXTT16=
PLAYORDER=
